<svg xmlns="http://www.w3.org/2000/svg" width="14" height="14" viewBox="0 0 14 14"><g><g transform="matrix(-1 0 0 1 14 0)"><g><path fill="#787878" d="M12.916 4.047H1.094V2.734c0-.301.245-.547.547-.547h.657v1.094h1.095V2.187h7.224v1.094h1.095V2.187h.657c.302 0 .547.246.547.547zm0 8.312a.548.548 0 0 1-.547.547H1.64a.548.548 0 0 1-.547-.547V5.141h11.822zM12.36 1.094h-.656V0H10.61v1.094H3.391V0H2.297v1.094H1.64C.736 1.094 0 1.83 0 2.734v9.625C0 13.264.736 14 1.64 14h10.72c.904 0 1.64-.736 1.64-1.64V2.733c0-.904-.736-1.64-1.64-1.64z"/></g><g><path fill="#787878" d="M2.63 6.13h.875v.875H2.63z"/></g><g><path fill="#787878" d="M4.38 6.13h.875v.875H4.38z"/></g><g><path fill="#787878" d="M6.13 6.13h.875v.875H6.13z"/></g><g><path fill="#787878" d="M8.75 6.13h.875v.875H8.75z"/></g><g><path fill="#787878" d="M10.5 6.13h.875v.875H10.5z"/></g><g><path fill="#787878" d="M2.63 8.75h.875v.875H2.63z"/></g><g><path fill="#787878" d="M4.38 8.75h.875v.875H4.38z"/></g><g><path fill="#787878" d="M6.13 8.75h.875v.875H6.13z"/></g><g><path fill="#787878" d="M8.75 8.75h.875v.875H8.75z"/></g><g><path fill="#787878" d="M2.63 10.5h.875v.875H2.63z"/></g><g><path fill="#787878" d="M4.38 10.5h.875v.875H4.38z"/></g><g><path fill="#787878" d="M6.13 10.5h.875v.875H6.13z"/></g><g><path fill="#787878" d="M8.75 10.5h.875v.875H8.75z"/></g><g><path fill="#787878" d="M10.5 8.75h.875v.875H10.5z"/></g></g></g></svg>