<svg xmlns="http://www.w3.org/2000/svg" width="48" height="48" viewBox="0 0 48 48"><defs><clipPath id="7w34a"><path d="M0 44.8h48v1.598H0z"/></clipPath></defs><g><g><g><path fill="#9777a8" d="M14.647 26.624l-4.012 4.008a.8.8 0 1 0 1.133 1.133l4.01-4.012a.796.796 0 0 0 0-1.129.802.802 0 0 0-1.131 0"/></g><g><path fill="#9777a8" d="M22.157 26.624a.803.803 0 0 0-1.133 0 .798.798 0 0 0 0 1.129l4.821 4.82a.803.803 0 0 0 1.133 0 .798.798 0 0 0 0-1.129z"/></g><g><path fill="#9777a8" d="M40.567 24.234a.803.803 0 0 0-1.133 0l-8 8a.803.803 0 0 0 .567 1.367c.203 0 .41-.078.566-.234l8-8a.803.803 0 0 0 0-1.133"/></g><g><path fill="#556080" d="M2.396 48a.798.798 0 0 1-.796-.801V.801a.798.798 0 1 1 1.597 0v46.398a.799.799 0 0 1-.801.801"/></g><g><g/><g clip-path="url(#7w34a)"><path fill="#556080" d="M47.199 46.398H.801a.798.798 0 1 1 0-1.598h46.398a.8.8 0 1 1 0 1.598"/></g></g><g><path fill="#bdc3c7" d="M7.198 23.197H5.601a.796.796 0 0 1-.801-.801c0-.441.355-.796.801-.796h1.597a.798.798 0 1 1 0 1.597"/></g><g><path fill="#bdc3c7" d="M7.198 20.002H5.601a.799.799 0 0 1-.801-.801.8.8 0 0 1 .801-.801h1.597a.802.802 0 0 1 0 1.602"/></g><g><path fill="#bdc3c7" d="M7.198 16.802H5.601a.8.8 0 0 1-.801-.801.8.8 0 0 1 .801-.801h1.597a.802.802 0 0 1 0 1.602"/></g><g><path fill="#bdc3c7" d="M7.198 13.602H5.601a.8.8 0 0 1-.801-.801c0-.442.355-.801.801-.801h1.597a.801.801 0 0 1 0 1.602"/></g><g><path fill="#bdc3c7" d="M7.198 10.397H5.601a.795.795 0 0 1-.801-.796c0-.446.355-.801.801-.801h1.597a.799.799 0 1 1 0 1.597"/></g><g><path fill="#bdc3c7" d="M7.198 7.197H5.601a.796.796 0 0 1-.801-.801c0-.441.355-.796.801-.796h1.597a.798.798 0 1 1 0 1.597"/></g><g><path fill="#bdc3c7" d="M7.198 4.002H5.601a.799.799 0 0 1-.801-.801.8.8 0 0 1 .801-.801h1.597a.802.802 0 0 1 0 1.602"/></g><g><path fill="#f29c1f" d="M12.81 34.39a4 4 0 1 1-8 0 4 4 0 0 1 8 0"/></g><g><path fill="#71c285" d="M22.4 24.8a4 4 0 1 1-8 0 4 4 0 0 1 8 0"/></g><g><path fill="#71c285" d="M47.2 22.4a4 4 0 1 1-8 0 4 4 0 0 1 8 0"/></g><g><path fill="#f29c1f" d="M32.8 35.2a4 4 0 1 1-8 0 4 4 0 0 1 8 0"/></g></g></g></svg>