<svg xmlns="http://www.w3.org/2000/svg" width="30" height="26" viewBox="0 0 30 26"><g><g><g><path fill="#080808" d="M5.753 8.186l-3.629-1.41.377 3.778L0 13.471l3.815.82 2.082 3.212 1.981-3.272 3.789-.931-2.591-2.842.26-3.788z"/></g><g><path fill="#080808" d="M20.921 10.458L18.33 13.3l3.788.931 1.981 3.272 2.082-3.212 3.816-.82-2.502-2.916.377-3.78-3.628 1.41-3.582-1.515z"/></g><g><path fill="#080808" d="M15.003 0l-2.031 3.258-3.802.88 2.546 2.893-.318 3.802 3.605-1.47 3.605 1.47-.317-3.802 2.546-2.893-3.802-.88z"/></g><g><path fill="#080808" d="M3.33 25.833h6.667V20H3.33z"/></g><g><path fill="#080808" d="M20 25.833h6.667V20H20z"/></g><g><path fill="#080808" d="M11.67 25.833h6.667V20H11.67z"/></g><g><path fill="#080808" d="M11.67 17.497h7.5V15.83h-7.5z"/></g></g></g></svg>