<svg xmlns="http://www.w3.org/2000/svg" width="39" height="50" viewBox="0 0 39 50"><defs><clipPath id="w4j4a"><path d="M23.04 30.05h15.94v17.946H23.04z"/></clipPath><clipPath id="w4j4b"><path d="M32 42.09h.966v7.912H32z"/></clipPath><clipPath id="w4j4c"><path d="M6.02 42.09h.966v7.912H6.02z"/></clipPath></defs><g><g transform="matrix(-1 0 0 1 39 0)"><g><path fill="#ffe7cf" d="M22.166 36.703L27 32.006l-1.919-.369c-.926-.192-1.593-1.304-1.593-2.281V25h-8.976v4.356c0 .977-.667 2.089-1.593 2.281L11 32.006l4.834 4.697a4.513 4.513 0 0 0 6.332 0"/></g><g><path fill="#f4d3a6" d="M20 25v6.056c0 .957.699 2.045 1.67 2.233l3.968.711L28 31.857l-2.012-.36c-.971-.19-1.67-1.277-1.67-2.234V25z"/></g><g><path fill="#2d5872" d="M33.086 31.222l-6.972-1.207a.985.985 0 0 0-.728.158L19.5 34.275l-5.886-4.102a.985.985 0 0 0-.728-.158l-6.971 1.207C2.408 32.185 0 35.186 0 38.594v7.791C0 47.277.775 48 1.732 48h35.536c.957 0 1.732-.723 1.732-1.615v-7.79c0-3.409-2.408-6.41-5.915-7.373"/></g><g><g/><g clip-path="url(#w4j4a)"><path fill="#1d4559" d="M33.336 31.268l-6.652-1.203a.908.908 0 0 0-.695.157L23.04 32.37l6.33 1.146c3.347.96 5.644 1.86 5.644 5.258v9.222h2.314c.912 0 1.652-.72 1.652-1.61V38.62c0-3.398-2.297-6.39-5.644-7.35"/></g></g><g><path fill="#1d4559" d="M11 30.44l3.986 6.059c.3.456.852.625 1.328.406L20 35.204l-6.15-4.993a.915.915 0 0 0-.76-.193z"/></g><g><path fill="#1d4559" d="M28 30.44l-3.986 6.059c-.3.456-.852.625-1.328.406L19 35.204l6.15-4.993a.915.915 0 0 1 .76-.193z"/></g><g><path fill="#2d5872" d="M18.5 0C11.044 0 5 5.13 5 8.03 5 10.927 11.044 13 18.5 13S32 10.928 32 8.03C32 5.13 25.956 0 18.5 0"/></g><g><path fill="#1d4559" d="M20.18 0c-.742 0-1.47.049-2.18.14 6.597.836 11.64 5.272 11.64 7.89 0 2.617-5.043 4.56-11.64 4.912.71.038 1.438.058 2.18.058C27.812 13 34 10.928 34 8.03 34 5.13 27.812 0 20.18 0"/></g><g><path fill="#ffe7cf" d="M29.334 16.184h-.628v-2.301A7.64 7.64 0 0 0 25.8 7.88c-1.478-1.172-11.122-1.172-12.6 0a7.64 7.64 0 0 0-2.906 6.004v2.302h-.628c-.92 0-1.666.686-1.666 1.533v1.7c0 .848.746 1.534 1.666 1.534h.63a7.64 7.64 0 0 0 2.904 5.825A10.122 10.122 0 0 0 19.5 29a10.122 10.122 0 0 0 6.3-2.223 7.64 7.64 0 0 0 2.904-5.825h.63c.92 0 1.666-.686 1.666-1.534v-1.7c0-.847-.746-1.534-1.666-1.534"/></g><g><path fill="#f4d3a6" d="M29.41 16.184h-.599v-2.301c0-2.29-.974-4.51-2.772-6.004-.888-.738-4.863-1.011-8.039-.82 1.868.113 3.46.386 3.983.82 1.798 1.494 2.772 3.714 2.772 6.004v1.622l-.002 5.447c-.05 2.227-1.019 4.37-2.77 5.825-1.02.848-2.34 1.617-3.983 1.989a9.638 9.638 0 0 0 2.028.234c2.618-.028 4.6-1.051 6.01-2.223 1.752-1.455 2.722-3.598 2.771-5.825h.601c.878 0 1.59-.687 1.59-1.534v-1.7c0-.847-.712-1.534-1.59-1.534"/></g><g><path fill="#ff6d3a" d="M9 10.565v5.52s1.328-.03 2.182.832c.177.18.48.048.48-.207v-4.089h14.676v4.09c0 .254.303.386.48.206.854-.862 2.182-.831 2.182-.831v-5.521c0-3.42-20-3.42-20 0"/></g><g><path fill="#2d5872" d="M19 16c-5.523 0-10-1.79-10-4h20c0 2.21-4.477 4-10 4"/></g><g><path fill="#1d4559" d="M9 7.559V10h20V7.584c0-.655-.483-1.226-1.175-1.388C25.975 5.76 22.211 5 18.532 5c-3.39-.001-6.71.744-8.393 1.179C9.465 6.353 9 6.916 9 7.559"/></g><g><path fill="#282c3a" d="M18.5 35L16 36.154 17.462 38h2.076L21 36.154z"/></g><g><path fill="#282c3a" d="M19.538 38h-2.076L16 50h5z"/></g><g><path fill="#ffbf14" d="M1.714 36.664a1.598 1.598 0 0 0 2.199-.228l.74-.89a1.484 1.484 0 0 0-.235-2.131L3.887 33A7.139 7.139 0 0 0 1 36.106z"/></g><g><path fill="#eaa200" d="M38 36.106A7.138 7.138 0 0 0 35.113 33l-.53.415a1.484 1.484 0 0 0-.237 2.13l.741.89a1.598 1.598 0 0 0 2.199.23z"/></g><g><g/><g clip-path="url(#w4j4b)"><path fill="#183d4c" d="M32.483 42.09c-.267 0-.483.35-.483.783v7.129h.966v-7.13c0-.432-.216-.782-.483-.782"/></g></g><g><g/><g clip-path="url(#w4j4c)"><path fill="#183d4c" d="M6.503 42.09c-.267 0-.483.35-.483.783v7.129h.966v-7.13c0-.432-.216-.782-.483-.782"/></g></g></g></g></svg>