<svg xmlns="http://www.w3.org/2000/svg" width="746" height="372" viewBox="0 0 746 372"><defs><clipPath id="lw8wa"><path fill="#fff" d="M0 8a8 8 0 0 1 8-8h728a8 8 0 0 1 8 8v356a8 8 0 0 1-8 8H8a8 8 0 0 1-8-8z"/></clipPath><filter id="lw8wb" width="640" height="181" x="89" y="111" filterUnits="userSpaceOnUse"><feOffset dy="5" in="SourceGraphic" result="FeOffset1163Out"/><feGaussianBlur in="FeOffset1163Out" result="FeGaussianBlur1164Out" stdDeviation="4 4"/></filter><linearGradient id="lw8wc" x1="702" x2="714" y1="162" y2="151" gradientUnits="userSpaceOnUse"><stop offset="0" stop-color="#e21f70"/><stop offset="1" stop-color="#ff4d2c"/></linearGradient></defs><g><g><g><path fill="#fff" d="M0 8a8 8 0 0 1 8-8h728a8 8 0 0 1 8 8v356a8 8 0 0 1-8 8H8a8 8 0 0 1-8-8z"/><path fill="none" stroke="#e5e5e5" stroke-miterlimit="50" stroke-width="2" d="M0 8a8 8 0 0 1 8-8h728a8 8 0 0 1 8 8v356a8 8 0 0 1-8 8H8a8 8 0 0 1-8-8z" clip-path="url(&quot;#lw8wa&quot;)"/></g><g><path fill="#d1d8de" d="M717 25c0-1.105 1.12-2 2.5-2s2.5.895 2.5 2-1.12 2-2.5 2-2.5-.895-2.5-2zm0 8c0-1.105 1.12-2 2.5-2s2.5.895 2.5 2-1.12 2-2.5 2-2.5-.895-2.5-2zm0 8c0-1.105 1.12-2 2.5-2s2.5.895 2.5 2-1.12 2-2.5 2-2.5-.895-2.5-2z"/></g><g/><g/><g/><g/><g/><g/><g opacity=".5"/><g opacity=".5"/><g opacity=".5"/><g opacity=".5"/><g opacity=".5"/><g opacity=".5"/><g/><g opacity=".5"/><g><path fill="none" stroke="#edf0f2" stroke-linecap="square" stroke-miterlimit="50" d="M21.58 319.5h723"/></g><g><path fill="none" stroke="#edf0f2" stroke-linecap="square" stroke-miterlimit="50" d="M21.58 266.5h723"/></g><g><path fill="none" stroke="#edf0f2" stroke-linecap="square" stroke-miterlimit="50" d="M21.58 214.5h723"/></g><g><path fill="none" stroke="#edf0f2" stroke-linecap="square" stroke-miterlimit="50" d="M21.58 161.5h723"/></g><g><path fill="none" stroke="#edf0f2" stroke-linecap="square" stroke-miterlimit="50" d="M21.58 109.5h723"/></g><g><path fill="none" stroke="#cfd9df" stroke-dasharray="2 4" stroke-linecap="square" stroke-miterlimit="50" d="M109.5 318.428v-85.863"/></g><g><path fill="none" stroke="#cfd9df" stroke-dasharray="2 4" stroke-linecap="square" stroke-miterlimit="50" d="M194.5 318.427V132.138"/></g><g><path fill="none" stroke="#cfd9df" stroke-dasharray="2 4" stroke-linecap="square" stroke-miterlimit="50" d="M279.5 318.43V190.57"/></g><g><path fill="none" stroke="#cfd9df" stroke-dasharray="2 4" stroke-linecap="square" stroke-miterlimit="50" d="M363.5 318.428V216.572"/></g><g><path fill="none" stroke="#cfd9df" stroke-dasharray="2 4" stroke-linecap="square" stroke-miterlimit="50" d="M449.5 318.427V169.573"/></g><g><path fill="none" stroke="#cfd9df" stroke-dasharray="2 4" stroke-linecap="square" stroke-miterlimit="50" d="M534.5 318.428V200.572"/></g><g><path fill="none" stroke="#cfd9df" stroke-dasharray="2 4" stroke-linecap="square" stroke-miterlimit="50" d="M619.5 318.427v-53.854"/></g><g><path fill="none" stroke="#cfd9df" stroke-dasharray="2 4" stroke-linecap="square" stroke-miterlimit="50" d="M703.5 318.428v-85.3"/></g><g><path fill="none" stroke="#cfd9df" stroke-dasharray="2 4" stroke-linecap="round" stroke-linejoin="round" stroke-miterlimit="50" d="M109 230.883C131.091 211.143 135.742 130 200.854 130c65.111 0 87.203 100.883 126.735 100.883s73.25-62.57 139.524-62.57c66.275 0 109.644 97.687 167.43 97.687S699.654 214.571 745 214.571"/></g><g><g filter="url(#lw8wb)"><path fill="none" stroke="#f52d56" stroke-opacity=".3" stroke-width="3" d="M109 267c19.767 0 12.79-30.787 68.605-30.787 55.814 0 34.883-75.256 84.883-75.256 50 0 48.838 88.94 112.791 88.94 63.954 0 68.605-111.745 126.744-118.586 58.14-6.842 81.396 101.482 132.558 101.482 51.163 0 47.675-74.116 74.419-76.397"/></g><path fill="none" stroke="#000" stroke-linecap="round" stroke-linejoin="round" stroke-miterlimit="50" stroke-width="3" d="M109 267c19.767 0 12.79-30.787 68.605-30.787 55.814 0 34.883-75.256 84.883-75.256 50 0 48.838 88.94 112.791 88.94 63.954 0 68.605-111.745 126.744-118.586 58.14-6.842 81.396 101.482 132.558 101.482 51.163 0 47.675-74.116 74.419-76.397"/></g><g><path fill="url(#lw8wc)" d="M708 162c3.314 0 6-2.462 6-5.5s-2.686-5.5-6-5.5-6 2.462-6 5.5 2.686 5.5 6 5.5z"/></g><g/></g></g></svg>