<svg xmlns="http://www.w3.org/2000/svg" width="48" height="50" viewBox="0 0 48 50"><defs><clipPath id="2gkba"><path d="M41.48 15.13h6.658v13.816H41.48z"/></clipPath><clipPath id="2gkbb"><path d="M0 27.01h6.582v20.072H0z"/></clipPath><clipPath id="2gkbc"><path d="M0 37.06h6.582v10.022H0z"/></clipPath></defs><g><g><g><path fill="#ffd400" d="M16.927 5.205c-.174-.548-.64-.974-1.193-1.035l-3.056-.487L11.31.79A1.458 1.458 0 0 0 10 0c-.524 0-1.048.274-1.31.791L7.322 3.683l-3.056.487c-.553.06-1.019.487-1.193 1.035a1.527 1.527 0 0 0 .378 1.552l2.212 2.252-.524 3.195a1.59 1.59 0 0 0 .582 1.492 1.368 1.368 0 0 0 1.543.122L10 12.296l2.736 1.522c1.077.578 2.328-.365 2.124-1.614l-.523-3.195 2.212-2.252a1.526 1.526 0 0 0 .378-1.552"/></g><g><g><path fill="#ffd400" d="M36.422 4.971c-.167-.523-.613-.93-1.143-.989l-2.928-.465-1.31-2.761A1.397 1.397 0 0 0 29.786 0c-.502 0-1.004.262-1.255.756l-1.31 2.761-2.928.465c-.53.059-.976.466-1.144.99a1.456 1.456 0 0 0 .363 1.481l2.12 2.152-.503 3.052c-.083.552.14 1.104.558 1.424.418.349 1.004.378 1.478.117l2.621-1.454 2.621 1.454c.223.116.446.174.67.174.278 0 .557-.087.808-.29.418-.32.641-.873.557-1.425l-.501-3.052 2.119-2.152c.39-.378.53-.959.362-1.482"/></g><g><path fill="#ffd400" d="M46.798 18.612l-2.917-.465-1.31-2.761a1.397 1.397 0 0 0-1.255-.756c-.502 0-1.004.261-1.255.756l-1.31 2.761-2.928.465c-.53.058-.976.465-1.143.989a1.456 1.456 0 0 0 .362 1.482l2.12 2.151-.503 3.053c-.195 1.191 1.004 2.092 2.036 1.54l2.621-1.453 2.621 1.453c1.032.552 2.23-.349 2.036-1.54l-.502-3.053 2.108-2.15c.836-.844.362-2.297-.78-2.472"/></g></g><g><g><path fill="#ffbdab" d="M29.754 36.763c1.748 0 3.157 1.466 3.157 3.282 0 1.846-1.41 3.311-3.157 3.311h-2.818c1.747 0 3.156 1.465 3.156 3.311 0 1.817-1.409 3.282-3.156 3.282h-8.85c-4.228 0-8.456-1.026-12.233-2.93L2.02 36.88l.057-.118L5.853 26.48l3.27-1.7c5.44-2.841 6.68-7.031 6.933-9.346a2 2 0 0 1 .648-1.553 1.863 1.863 0 0 1 1.579-.498c2.705.44 4.763 2.872 4.763 5.801a7.084 7.084 0 0 1-1.522 4.396h8.23c1.748 0 3.157 1.464 3.157 3.281 0 1.846-1.41 3.311-3.157 3.311 1.748 0 3.157 1.465 3.157 3.311 0 1.817-1.41 3.281-3.157 3.281"/></g><g><path fill="#fdbd00" d="M15.758 5.01c.169.528.028 1.114-.366 1.495l-2.143 2.168.508 3.076c.197 1.202-1.015 2.11-2.058 1.554L9.05 11.837V0c.507 0 1.015.264 1.269.762l1.324 2.783 2.96.47c.535.058.986.468 1.155.996"/></g></g><g><g><path fill="#fdbd00" d="M36.607 5.14c.167.54.028 1.141-.36 1.532l-2.11 2.224.5 3.155c.083.571-.14 1.142-.556 1.473-.25.21-.527.3-.805.3a1.39 1.39 0 0 1-.666-.18L30 12.141V0c.5 0 1 .27 1.25.781l1.304 2.855 2.915.481c.527.06.972.481 1.138 1.022"/></g><g><g/><g clip-path="url(#2gkba)"><path fill="#fdbd00" d="M47.715 21.802l-2.099 2.224.5 3.155c.194 1.232-1 2.164-2.026 1.593l-2.61-1.503V15.13c.5 0 1 .27 1.25.781l1.304 2.855 2.904.481c1.138.18 1.61 1.683.777 2.555"/></g></g></g><g><g><path fill="#ffa68f" d="M29.838 43.503h-2.743c1.7 0 3.072 1.432 3.072 3.236 0 1.775-1.371 3.206-3.072 3.206h-8.612c-4.114 0-8.228-1.002-11.903-2.863l-3.73-9.908.055-.114h26.933c1.7 0 3.072 1.432 3.072 3.207 0 1.804-1.371 3.236-3.072 3.236"/></g><g><g/><g clip-path="url(#2gkbb)"><path fill="#705c57" d="M6.582 27.01v20.072h-5.21c-.768 0-1.372-.63-1.372-1.431V28.47c0-.802.604-1.432 1.371-1.432h5.156z"/></g></g><g><g/><g clip-path="url(#2gkbc)"><path fill="#66514c" d="M6.582 37.06v10.022h-5.21C.603 47.082 0 46.452 0 45.65v-8.59z"/></g></g></g></g></g></svg>